<svg version="1.1" viewBox="0.0 0.0 1240.6141732283465 285.4776902887139" fill="none" stroke="none" stroke-linecap="square" stroke-miterlimit="10" xmlns:xlink="http://www.w3.org/1999/xlink" xmlns="http://www.w3.org/2000/svg"><clipPath id="p.0"><path d="m0 0l1240.6141 0l0 285.4777l-1240.6141 0l0 -285.4777z" clip-rule="nonzero"/></clipPath><g clip-path="url(#p.0)"><path fill="#000000" fill-opacity="0.0" d="m0 0l1240.6141 0l0 285.4777l-1240.6141 0z" fill-rule="evenodd"/><path fill="#ffffff" d="m284.42038 29.045729c-8.469849 0 -15.943237 2.9510117 -22.420166 8.853029c-6.4769287 5.863693 -9.715408 12.685513 -9.715408 20.465443c0 7.7416115 2.3569946 13.9119 7.0709686 18.510876c4.7139893 4.598976 11.190918 6.8984604 19.430817 6.8984604c8.239929 0 15.713318 -2.9318466 22.420197 -8.79554c6.7068787 -5.9020233 10.060333 -12.685513 10.060333 -20.350464c0 -7.664963 -2.3569946 -13.8352585 -7.070984 -18.51088c-4.7139893 -4.713949 -11.305908 -7.0709248 -19.775757 -7.0709248zm-158.2601 24.37457c3.0659943 12.685513 4.5990143 36.925953 4.5990143 72.7213l-0.34492493 40.988373l-58.29245 0c1.647995 -3.525879 5.825447 -12.417236 12.532303 -26.674057c6.7451935 -14.256828 12.992203 -27.670502 18.74096 -40.241043c5.7871094 -12.608849 11.976631 -27.977089 18.568504 -46.10473c0.9197998 -0.4598961 2.3186493 -0.68984604 4.196594 -0.68984604zm24.02983 -33.917442c-24.25978 0 -46.392517 2.8168716 -66.39821 8.450617l-0.68984985 4.598976l2.8168945 3.90913c5.173889 7.281708 7.760826 12.685497 7.760826 16.211388c0 1.4180222 -0.4598999 4.0049477 -1.3796997 7.7607727c-6.8601685 22.841576 -21.71112 57.295563 -44.552906 103.36198c-22.84173 46.028076 -37.788513 79.38982 -44.840347 100.085205c7.3200717 6.361908 13.854517 9.542877 19.60328 9.542877c5.7871056 0 9.504656 -2.586914 11.152597 -7.7607727c6.3619843 -21.423553 15.425884 -45.798126 27.191647 -73.12372c14.831806 -2.337799 28.475513 -3.5067139 40.931187 -3.5067139c12.4939575 0 21.806953 0.7090149 27.938988 2.1270294l0 27.881287c0 36.983444 11.880783 55.475143 35.64232 55.475143c9.198029 0 19.258362 -2.5294495 30.181 -7.588318c10.960968 -5.0588684 20.925491 -11.957336 29.89357 -20.695389l-7.070984 -12.704666l-4.598999 2.1270294c-9.657928 4.7139435 -15.425858 7.070923 -17.303787 7.070923c-1.8779144 0 -3.7558289 -2.2420044 -5.633774 -6.725998c-4.943939 -11.765701 -7.415909 -32.02037 -7.415909 -60.76396c0 -74.158485 -1.8970947 -120.18657 -5.691269 -138.08424c-1.379715 -7.3200397 -3.3726044 -12.743 -5.978714 -16.268877l-21.557861 -1.3796921zm144.808 96.061104c-28.015625 0 -48.270447 1.7629471 -60.764404 5.2888184l-0.34492493 4.598976l3.2192993 4.254059c6.093689 8.699722 9.140533 17.993484 9.140533 27.881287c0 6.591873 -2.9510345 20.906174 -8.853088 42.942932c-5.863739 21.998428 -8.7956085 37.30919 -8.7956085 45.932266c0 8.584763 2.3569946 15.40657 7.0709686 20.465439c4.7139893 5.0588684 11.190918 7.588318 19.430817 7.588318c8.239914 0 17.188797 -2.4144592 26.846725 -7.2433777c9.657928 -4.828949 16.249817 -8.661407 19.775726 -11.497452c3.52594 -2.8360443 6.3428345 -5.1930237 8.450684 -7.070923l-5.9786987 -12.359741l-4.2540894 2.1270142c-9.389648 4.484009 -14.793488 6.726013 -16.211517 6.726013c-2.1462097 0 -3.2192993 -3.6983643 -3.2192993 -11.095032c0 -7.435028 3.1809998 -23.224823 9.542938 -47.369446c6.361969 -24.144623 9.542969 -41.160843 9.542969 -51.04863c0 -9.887802 -1.53302 -16.594643 -4.5990295 -20.120522z" fill-rule="evenodd"/><path fill="#ffffff" d="m1201.6796 131.0855c11.305908 0 16.958862 4.119919 16.958862 12.359756c0 8.239822 -4.9439697 16.6138 -14.831787 25.121902l-5.2889404 -4.598984c-10.386108 -9.427902 -15.579102 -16.728775 -15.579102 -21.902618c0 -2.836029 1.7629395 -5.3654633 5.2888184 -7.5883026c3.564331 -2.2611694 8.04834 -3.3917542 13.452148 -3.3917542zm-446.47485 0c1.4180298 0 2.6061401 0.24911499 3.564209 0.747345l-1.7821045 3.5067139c-3.065979 6.591873 -4.598999 13.662796 -4.598999 21.212769c0 18.81749 12.608948 28.226212 37.826843 28.226212c-3.065979 14.141861 -8.546448 27.574692 -16.441467 40.298523c-7.8949585 12.685501 -16.786377 19.028275 -26.674255 19.028275c-12.953857 0 -19.430786 -12.704681 -19.430786 -38.114014c0 -17.89769 2.586914 -33.783325 7.760803 -47.65689c5.212219 -13.911896 10.750183 -22.745773 16.613953 -26.501587c0.7281494 -0.49822998 1.7821045 -0.747345 3.1618042 -0.747345zm273.77295 3.564209c6.591919 0 13.892822 2.1078644 21.902832 6.323593c-9.887939 53.23314 -15.195923 84.56366 -15.924072 93.99156c-7.5117188 6.323593 -15.157593 9.485382 -22.937622 9.485382c-4.484009 0 -7.8566284 -2.222824 -10.117798 -6.668503c-2.2228394 -4.484009 -3.3342896 -14.659241 -3.3342896 -30.525711c0 -15.90477 3.008545 -31.982025 9.025574 -48.23175c6.017029 -16.249725 13.145508 -24.374573 21.385376 -24.374573zm-589.1586 -20.867851c-8.699799 0 -17.169617 3.5450516 -25.409515 10.635132c-8.239899 7.0517654 -13.662903 12.685509 -16.269012 16.901237c0 -11.037537 -1.4180298 -19.622292 -4.2540894 -25.754265c-28.015625 0 -48.385437 1.7629471 -61.109344 5.2888184l-0.34490967 4.598976l3.2192993 4.254059c6.591919 8.699722 9.887878 16.690445 9.887878 23.972153c0 4.254059 -3.1809998 21.097809 -9.542938 50.53125c-6.361969 29.433441 -9.542969 47.503586 -9.542969 54.210434c0 6.7068176 0.22994995 10.999176 0.68984985 12.877106l2.4719849 0c24.489716 0 40.854523 -1.6479492 49.09442 -4.943878c-0.22994995 -2.1078491 -0.34490967 -5.7487183 -0.34490967 -10.922577c0 -14.371796 5.423004 -45.932266 16.268982 -94.68141c4.445709 -4.9438934 9.619598 -8.469772 15.5216675 -10.577637c1.8779297 0 4.694824 3.180954 8.450684 9.542877c3.794159 6.361923 5.806244 9.542877 6.036194 9.542877c5.633789 -0.9581146 11.459198 -3.430069 17.476227 -7.415848c6.0170593 -4.024109 10.022034 -7.147583 12.014923 -9.370422c1.9929199 -2.2228394 3.5834045 -4.043274 4.7714844 -5.4612885c0 -22.151718 -6.361969 -33.227592 -19.085907 -33.227592zm61.586212 0c-5.7487793 0 -11.919098 0.36408234 -18.511017 1.0922546c-2.79776 0.4598999 -5.4996643 0.9389572 -8.105774 1.4371872c-2.5677795 0.45989227 -4.867279 0.9197922 -6.8984985 1.3796921c-1.9929199 0.45989227 -3.75589 0.8814621 -5.2888794 1.2647171c-1.5329895 0.34492493 -3.1235046 0.7473297 -4.771454 1.2072296l-0.68984985 4.254051c8.469818 8.46978 12.704742 16.709602 12.704742 24.71949l-3.9091492 92.15198c0 9.197952 2.4719849 17.03537 7.4158936 23.512268c4.9822693 6.4768677 12.647278 9.715332 22.995056 9.715332c15.5216675 0 31.5224 -8.239838 48.002197 -24.719498c1.9161987 7.2816925 5.633789 13.222061 11.152588 17.82103c5.518799 4.5989685 12.283142 6.898468 20.29309 6.898468c16.019897 0 31.79065 -7.2433777 47.312317 -21.730164c15.559998 -14.486771 27.91986 -32.07785 37.07953 -52.77324c9.197998 -20.733704 13.797058 -40.413483 13.797058 -59.039352c0 -7.281723 -2.586975 -13.624466 -7.7608643 -19.02826c-5.173889 -5.442131 -12.819702 -8.163185 -22.937561 -8.163185l-4.9439087 4.598976c-3.52594 3.295929 -7.3009644 9.063805 -11.325073 17.30365c-3.9858398 8.239822 -6.4577637 17.41861 -7.4158936 27.536362l24.029785 26.846527c-0.7281494 8.968002 -6.3811035 20.101334 -16.958801 33.400055c-10.577759 13.298706 -20.350647 19.94806 -29.318726 19.94806c-3.7558594 0 -5.633789 -4.6372986 -5.633789 -13.911911c0 -9.312912 1.9929199 -24.278763 5.97876 -44.89749c4.024109 -20.618744 6.036194 -36.753494 6.036194 -48.40422c0 -11.650742 -1.53302 -18.530045 -4.598999 -20.637901c-14.371948 0 -30.621765 3.410904 -48.74951 10.232719c1.4180298 6.591873 2.1270142 14.486771 2.1270142 23.684723c0 9.159622 -1.4180298 23.876358 -4.2540894 44.15016c-2.8360596 20.235504 -4.3690186 32.231155 -4.598999 35.986984c-8.699768 9.197952 -16.709717 13.796936 -24.029846 13.796936c-4.4456787 0 -6.668518 -4.6372986 -6.668518 -13.911911c0 -9.312912 1.5904541 -23.454773 4.7714233 -42.425537c3.1810303 -18.97078 4.7714844 -33.572525 4.7714844 -43.805252c0 -10.232712 -2.069519 -17.706055 -6.208679 -22.420006c-4.139099 -4.7139435 -9.102173 -7.070923 -14.889252 -7.070923zm279.95633 -2.4719467c-4.9439087 0 -9.408813 1.0539246 -13.394592 3.1617966l-12.704773 -0.68984985c-24.757996 0 -44.150513 9.427902 -58.17749 28.283699c-13.988647 18.817474 -20.982971 41.294983 -20.982971 67.43248c0 20.503754 4.598999 36.466034 13.797058 47.886826c9.197998 11.420776 21.902771 17.131195 38.114258 17.131195c21.462036 0 39.014954 -9.121307 52.65869 -27.363907c13.643677 -18.28093 22.70758 -39.781143 27.19165 -64.500626l7.070923 -1.3796997c8.700012 -1.7197571 16.22345 -3.5897217 22.570251 -5.6098785l0 0c-1.5100098 7.6249847 -3.4977417 17.140747 -5.963257 28.547272c-6.3619995 29.433441 -9.542969 47.503586 -9.542969 54.210434c0 6.7068176 0.22998047 10.999176 0.6898804 12.877106l2.4719849 0c24.489685 0 40.854492 -1.6479492 49.09442 -4.943878c-0.22998047 -2.1078491 -0.3449707 -5.7487183 -0.3449707 -10.922577c0 -14.371796 5.4230347 -45.932266 16.269043 -94.68141c4.4456787 -4.9438934 9.619568 -8.469772 15.521606 -10.577637c1.8779297 0 4.694824 3.180954 8.450684 9.542877c3.7941895 6.361923 5.8062744 9.542877 6.036255 9.542877c5.633789 -0.9581146 11.4591675 -3.430069 17.476196 -7.415848c6.017029 -4.024109 10.021973 -7.147583 12.014954 -9.370422c1.9928589 -2.2228394 3.583374 -4.043274 4.7714233 -5.4612885c0 -22.151718 -6.3619385 -33.227592 -19.085876 -33.227592c-8.699768 0 -17.169678 3.5450516 -25.409546 10.635132c-8.239868 7.0517654 -13.662903 12.685509 -16.268982 16.901237c0 -11.037537 -1.4180298 -19.622292 -4.2540894 -25.754265c-28.015625 0 -48.385376 1.7629471 -61.109314 5.2888184l-0.34490967 4.598976l3.2192993 4.254059c6.591919 8.699722 9.887878 16.690445 9.887878 23.972153c0 1.1122589 -0.21746826 3.0851593 -0.6524048 5.9186707l0 0l-1.8126221 0.4624176c-9.887878 2.1078644 -19.660767 3.410904 -29.318726 3.9091187c0 -35.105515 -9.312988 -52.658264 -27.938965 -52.658264zm333.44507 -100.315155c-16.978027 0 -34.28174 3.0659857 -51.911255 9.19795l1.7246094 14.831697c0 21.883461 -3.6408691 51.910934 -10.922607 90.082436c-11.305908 -7.54998 -25.256226 -11.324982 -41.851013 -11.324982c-16.594788 0 -31.48407 8.891357 -44.667908 26.674065c-13.183838 17.7827 -19.775757 42.214767 -19.775757 73.29617c0 20.733704 3.9858398 36.044464 11.9574585 45.932266c8.009949 9.887787 17.667847 14.831696 28.973755 14.831696c6.591919 0 14.237732 -1.9928894 22.937561 -5.978668c8.738098 -4.024109 16.633057 -9.562042 23.684937 -16.6138c2.3760986 15.0616455 11.152588 22.592468 26.329346 22.592468c15.176636 0 32.78711 -8.603912 52.831055 -25.811752l-6.726074 -12.359741l-3.564209 2.1270142c-7.5117188 4.484009 -11.9765625 6.726013 -13.394653 6.726013c-2.606079 0 -3.9090576 -2.8360443 -3.9090576 -8.508102c0 -18.81749 5.173828 -54.53621 15.521606 -107.15614c10.386108 -52.658264 15.579102 -87.57215 15.579102 -104.74166c0 -5.173847 -0.9388428 -9.772823 -2.8168945 -13.7969265zm76.46765 102.7871c-14.946777 0 -27.72815 3.2384415 -38.34424 9.71534c-10.577759 6.476898 -15.866577 15.617355 -15.866577 27.421387c0 11.765717 9.523804 27.593857 28.571411 47.48442c19.085815 19.89058 28.628784 35.239655 28.628784 46.04724c0 7.550003 -4.3498535 11.689072 -13.049683 12.417252c-7.550049 -18.855804 -17.208008 -32.63356 -28.973755 -41.333298c-5.633789 1.6479492 -12.589844 6.189438 -20.868042 13.624466c-8.239868 7.3966675 -12.359863 12.742981 -12.359863 16.038925c0 5.4037933 4.8864746 11.650711 14.659424 18.74083c9.772827 7.051758 23.01416 10.577637 39.723877 10.577637c16.748047 0 31.656494 -4.7139587 44.725464 -14.141846c13.068726 -9.427902 19.603271 -21.557709 19.603271 -36.389404c0 -6.591858 -2.1270752 -13.6436 -6.3812256 -21.155289c-4.2156982 -7.549988 -7.626587 -12.666351 -10.232788 -15.349075c-2.606079 -2.7210693 -4.733032 -4.9055786 -6.3811035 -6.553543c14.371948 -16.01976 21.557861 -28.551971 21.557861 -37.59662c0 -9.082977 -3.7750244 -16.268883 -11.325073 -21.557701c-7.5117188 -5.327156 -18.740967 -7.9907227 -33.687744 -7.9907227z" fill-rule="evenodd"/></g></svg>